<svg width="567" height="330" viewBox="0 0 567 330" fill="none" xmlns="http://www.w3.org/2000/svg">
<path d="M77.7238 325.307C77.7238 325.307 -31.7171 202.057 36.247 128.363C104.211 54.6686 157.927 150.337 195.076 143.289C242.093 134.366 262.433 0.129026 332.738 0.000289824C412.721 -0.1433 471.425 53.0594 440.155 179.765C417.091 273.218 575.623 196.689 552.339 327.129L77.7238 325.307Z" fill="#EBF2F9"/>
<path d="M313.92 314.247C299.043 311.871 287.812 317.04 277.011 315.557C268.398 314.372 263.909 305.737 252.335 303.282C255.089 301.672 258.297 299.658 259.828 298.194C262.807 295.357 267.089 289.658 259.828 289.433C254.607 289.271 250.541 297.897 248.671 302.743C246.811 302.598 244.941 302.598 243.081 302.743C245.47 295.106 250.121 280.325 251.268 277.486C252.808 273.622 246.304 260.739 238.628 275.197C233.244 285.337 236.901 297.055 239.565 303.152C237.539 303.478 235.539 303.949 233.581 304.561C227.236 290.205 207.056 249.28 185.178 254.373C161.329 259.918 212.424 287.432 225.31 307.834C214.785 312.674 205.534 318.553 189.545 314.26C147.052 302.85 143.681 328.523 143.681 328.523L333.576 328.586C333.576 328.586 328.798 316.621 313.92 314.247Z" fill="#ACD29A"/>
<path d="M262.255 221.874C262.451 223.685 265.036 223.619 267.958 223.183C270.879 222.747 270.125 223.51 274.235 223.432C278.344 223.353 279.715 221.961 279.893 221.372C280.054 220.85 278.061 220.479 275.933 220.039L275.126 219.868C272.719 219.345 271.08 217.625 268.985 216.146C267.005 214.745 265.667 208.323 265.667 208.323L259.824 208.288C259.824 208.288 261.661 214.097 262.616 216.115C263.179 217.304 262.581 218.83 262.396 219.973C262.263 220.597 262.215 221.237 262.255 221.874V221.874Z" fill="#FFB07B"/>
<path d="M267.975 223.183C270.899 222.747 270.142 223.51 274.252 223.432C278.362 223.353 279.733 221.961 279.911 221.372C280.072 220.85 278.078 220.479 275.951 220.039L275.926 220.078C274.082 221.029 272.011 221.468 269.936 221.348C267.168 221.165 264.316 220.115 262.409 219.973C262.279 220.597 262.235 221.236 262.277 221.872C262.46 223.683 265.045 223.619 267.975 223.183Z" fill="#365DA4"/>
<path d="M216.594 221.584C216.719 223.401 219.306 223.434 222.243 223.111C225.181 222.788 224.395 223.519 228.505 223.593C232.615 223.667 234.038 222.328 234.238 221.747C234.419 221.23 232.441 220.787 230.327 220.266L229.526 220.065C227.141 219.452 225.566 217.665 223.533 216.117C221.603 214.642 223.189 208.526 223.189 208.526L218.756 206.449C218.756 206.449 218.147 212.753 217.819 215.941C217.685 217.25 217.029 218.559 216.796 219.694C216.644 220.312 216.576 220.948 216.594 221.584V221.584Z" fill="#FFB07B"/>
<path d="M222.243 223.109C225.178 222.784 224.395 223.517 228.505 223.591C232.615 223.665 234.038 222.326 234.238 221.745C234.419 221.228 232.441 220.785 230.327 220.264L230.3 220.303C228.421 221.185 226.335 221.545 224.265 221.346C221.509 221.06 218.699 219.906 216.785 219.692C216.633 220.311 216.565 220.947 216.582 221.584C216.712 223.401 219.306 223.434 222.243 223.109Z" fill="#365DA4"/>
<path d="M226.551 130.809C226.551 130.809 225.324 136.701 224.092 166.608C222.505 170.619 221.191 174.731 220.158 178.915C218.503 185.68 217.335 213.933 217.335 213.933C217.335 213.933 217.995 214.876 219.997 214.996C221.004 215.047 222.007 214.835 222.906 214.383C222.906 214.383 234.406 177.384 240.005 163.019C245.604 148.654 248.882 128.145 248.882 128.145L226.551 130.809Z" fill="#2B478B"/>
<path d="M240.381 133.334C240.381 133.334 241.29 139.286 250.574 167.763C250.486 172.07 250.688 176.378 251.179 180.659C251.989 187.578 261.388 214.821 261.388 214.821C261.388 214.821 262.636 215.258 264.51 214.76C265.625 214.448 266.676 213.943 267.614 213.268C267.614 213.268 264.013 174.328 264.248 158.934C264.484 143.539 260.402 123.167 260.402 123.167L240.381 133.334Z" fill="#2B478B"/>
<path d="M256.825 50.8647C255.371 49.946 253.58 49.7737 252.321 49.7737C252.609 49.559 252.946 49.4202 253.303 49.37C252.53 49.215 250.753 49.8958 250.753 49.8958C240.133 45.2197 237.633 60.9502 237.675 64.6358C237.717 68.3213 237.53 72.5523 231.955 75.5789C220.989 81.5359 229.394 93.2995 229.394 93.2995C227.414 98.9162 234.727 105.796 234.727 105.796C234.604 102.813 248.407 83.8118 255.848 79.4761C257.732 77.0016 258.583 72.5087 258.649 72.153C258.165 75.7272 257.446 77.7086 256.834 78.8149C263.223 73.5495 260.684 53.2977 256.825 50.8647Z" fill="#C65447"/>
<path d="M254.513 77.4421C254.55 77.4596 251.03 79.2729 248.381 78.555C245.89 77.8807 244.264 74.6774 244.297 74.6709C245.351 74.4527 245.657 73.0256 245.635 66.8481L246.113 66.942L253.842 68.4694L254.13 68.524C254.13 68.524 253.945 71.0268 253.941 73.3835C253.941 73.8832 253.941 74.3741 253.965 74.8345C254.015 76.194 254.169 77.2828 254.513 77.4421Z" fill="#FFB07B"/>
<path d="M253.941 73.375C253.941 73.8747 253.941 74.3657 253.965 74.8261C249.468 74.6472 246.876 69.5477 245.899 67.311L253.842 68.461L254.13 68.5155C254.13 68.5155 253.945 71.0184 253.941 73.375Z" fill="#EA8E50"/>
<path d="M245.283 66.0739C245.283 66.0739 242.931 62.3905 242.368 59.2396C241.965 56.9899 243.12 48.6544 251.567 49.8567C253.268 50.091 254.894 50.701 256.326 51.6416C258.161 52.8701 260.807 55.5214 257.848 62.7964L257.08 65.2534L245.283 66.0739Z" fill="#C65447"/>
<path d="M254.601 72.2205C254.601 72.2205 244.077 70.8415 245.043 64.3651C246.009 57.8887 245.305 53.3303 252.064 53.9369C258.823 54.5435 259.764 57.21 259.967 59.4532C260.169 61.6964 257.364 72.4125 254.601 72.2205Z" fill="#FFB07B"/>
<path d="M256.871 54.4736C256.871 54.4736 252.854 61.6592 248.273 62.1305C243.692 62.6019 241.954 61.1486 241.954 61.1486C244.416 59.5748 246.249 57.2012 247.14 54.4344C247.14 54.4344 255.245 50.5328 256.871 54.4736Z" fill="#C65447"/>
<path d="M256.066 54.9864C256.066 54.9864 257.956 57.0026 258.231 58.7308C258.506 60.459 258.231 63.8958 259.247 63.9263C259.247 63.9263 262.191 59.0756 260.196 55.7894C258.075 52.3068 256.066 54.9864 256.066 54.9864Z" fill="#C65447"/>
<path d="M325.955 143.12C323.755 138.484 317.61 134.645 312.438 134.643C308.874 134.615 305.412 135.816 302.643 138.041C302.3 138.315 301.892 138.499 301.458 138.573C301.023 138.647 300.577 138.609 300.161 138.463C299.746 138.317 299.375 138.068 299.084 137.74C298.793 137.412 298.592 137.015 298.5 136.587L293.974 115.729C293.657 114.268 292.768 112.992 291.503 112.182C290.237 111.371 288.699 111.092 287.226 111.406L213.982 127.041C213.269 127.193 212.593 127.483 211.993 127.895C211.393 128.306 210.881 128.831 210.485 129.439C210.09 130.047 209.819 130.726 209.689 131.438C209.558 132.15 209.571 132.88 209.725 133.587L225.471 206.152C225.685 207.136 226.157 208.047 226.839 208.792C227.522 209.537 228.391 210.089 229.359 210.394L228.397 210.664H231.233H231.257C231.611 210.654 231.963 210.612 232.309 210.54L233.904 210.2L252.702 206.187C253.305 206.058 253.864 205.776 254.324 205.369C254.783 204.961 255.128 204.441 255.323 203.861C255.519 203.281 255.558 202.66 255.438 202.06C255.318 201.46 255.042 200.901 254.638 200.439C252.856 198.404 251.655 195.932 251.161 193.281C250.666 190.63 250.897 187.896 251.827 185.362C252.758 182.829 254.355 180.589 256.453 178.875C258.551 177.161 261.073 176.034 263.758 175.613C266.443 175.192 269.193 175.491 271.722 176.479C274.251 177.468 276.468 179.109 278.141 181.234C279.815 183.359 280.885 185.889 281.239 188.562C281.594 191.235 281.221 193.953 280.16 196.435C279.947 196.92 279.902 197.461 280.031 197.974C280.161 198.487 280.457 198.943 280.875 199.272L279.775 199.802H282.316C282.513 199.807 282.71 199.789 282.903 199.747L305.344 194.947C306.817 194.632 308.104 193.75 308.921 192.495C309.738 191.239 310.02 189.713 309.703 188.252L305.206 167.523C305.11 167.083 305.129 166.626 305.262 166.196C305.394 165.766 305.635 165.376 305.962 165.064C306.289 164.752 306.691 164.529 307.13 164.414C307.568 164.3 308.029 164.299 308.469 164.411C310.754 164.993 313.146 165.038 315.452 164.542C324.851 162.521 330.34 152.333 325.955 143.12Z" fill="#D86713"/>
<path d="M309.85 134.643C306.288 134.615 302.826 135.816 300.057 138.041C299.715 138.315 299.307 138.499 298.872 138.573C298.438 138.647 297.992 138.609 297.576 138.463C297.161 138.317 296.79 138.068 296.499 137.74C296.208 137.412 296.007 137.015 295.915 136.587L291.389 115.729C291.072 114.268 290.183 112.992 288.918 112.182C287.652 111.371 286.114 111.092 284.641 111.406L211.395 127.041C210.682 127.193 210.006 127.483 209.406 127.895C208.806 128.306 208.293 128.831 207.898 129.439C207.503 130.047 207.232 130.726 207.101 131.438C206.971 132.15 206.983 132.88 207.137 133.587L222.884 206.152C223.208 207.632 224.111 208.924 225.395 209.744C226.678 210.564 228.238 210.846 229.73 210.527L250.121 206.163C250.724 206.035 251.284 205.753 251.744 205.345C252.203 204.937 252.548 204.418 252.744 203.838C252.94 203.257 252.979 202.637 252.859 202.036C252.739 201.436 252.464 200.877 252.06 200.415C250.277 198.38 249.076 195.908 248.582 193.257C248.088 190.606 248.318 187.872 249.249 185.338C250.179 182.805 251.776 180.565 253.874 178.851C255.972 177.137 258.495 176.01 261.18 175.589C263.865 175.168 266.615 175.467 269.144 176.455C271.673 177.444 273.889 179.085 275.563 181.21C277.236 183.335 278.306 185.865 278.661 188.538C279.016 191.211 278.643 193.929 277.581 196.411C277.402 196.817 277.339 197.265 277.401 197.704C277.462 198.143 277.645 198.557 277.929 198.9C278.213 199.242 278.588 199.5 279.01 199.644C279.433 199.788 279.888 199.814 280.325 199.717L302.766 194.916C304.239 194.602 305.526 193.72 306.344 192.465C307.162 191.209 307.443 189.683 307.126 188.222L302.627 167.492C302.532 167.052 302.552 166.596 302.684 166.165C302.817 165.735 303.058 165.346 303.386 165.034C303.713 164.722 304.115 164.499 304.553 164.384C304.992 164.27 305.453 164.269 305.892 164.38C308.178 164.963 310.569 165.008 312.875 164.511C322.266 162.508 327.757 152.311 323.372 143.099C321.161 138.484 315.023 134.645 309.85 134.643Z" fill="#F1A34F"/>
<path d="M283.053 107.058C283.053 107.058 287.62 107.8 288.819 110.745C290.018 113.691 288.344 115.688 287.702 115.681C287.059 115.675 285.825 115.203 285.246 113.674C284.668 112.144 283.053 107.058 283.053 107.058Z" fill="#FFB07B"/>
<path d="M220.158 120.204C220.158 120.204 225.286 120.204 227.13 123.204C228.974 126.205 227.513 128.69 226.806 128.799C226.1 128.908 224.67 128.612 223.762 127.054C222.853 125.496 220.158 120.204 220.158 120.204Z" fill="#FFB07B"/>
<path d="M283.18 110.477C282.725 110.381 280.736 110.15 278.208 109.755C273.553 109.03 267.06 107.754 264.882 105.761C264.292 105.22 262.919 102.244 261.492 98.8312C260.046 106.386 259.967 112.181 260.35 116.591L228.888 123.31C231.587 117.9 235.763 111.19 234.98 105.761C234.69 103.747 233.578 100.987 233.163 97.8842C233.127 97.6179 233.099 97.3495 233.075 97.079C228.661 100.684 223.561 104.659 223.44 105.454C223.236 106.787 226.672 121.542 226.672 121.542C225.819 123.491 222.114 123.081 222.114 123.081C218.64 120.621 213.533 106.682 213.942 103.595C214.352 100.507 227.013 82.9086 230.08 78.7037C233.108 74.5578 244.161 74.6516 244.427 74.6538C253.228 79.8908 254.011 75.5375 254.011 75.5375C254.011 75.5375 261.932 77.0323 263.304 79.3562C264.677 81.6801 270.644 99.3003 271.066 99.92C271.947 101.218 286.401 106.41 286.659 107.913C286.916 109.416 284.476 110.75 283.18 110.477Z" fill="#80BDCC"/>
<path d="M239.851 120.977L228.877 123.309C231.609 117.913 235.202 111.194 234.417 105.798C234.122 103.784 233.464 101.401 233.147 98.2831C233.116 97.9842 233.064 97.0786 233.064 97.0786C233.064 97.0786 240.834 103.145 240.971 109.708C241.041 113.115 240.443 117.57 239.851 120.977Z" fill="#5F9AA8"/>
<path d="M278.501 109.794C273.788 109.069 267.216 107.793 265.012 105.801C264.413 105.257 263.031 102.279 261.577 98.8616C261.577 98.8616 261.069 93.3693 262.517 93.5745C263.964 93.7796 266.094 103.52 267.614 104.136C268.974 104.696 276.496 107.551 278.501 109.794Z" fill="#5F9AA8"/>
<path d="M510.669 319.037C510.009 321.258 506.929 322.747 506.524 325.452C506.385 326.576 505.923 327.637 505.193 328.507H495.644C495.739 327.986 496.159 327.416 497.404 327.156C500.045 326.58 501.057 323.392 500.892 320.431C500.823 319.192 500.854 317.776 500.916 316.552C500.999 314.856 501.136 313.525 501.136 313.525L506.772 312.216L507.367 312.971L507.934 313.695C507.934 313.695 511.331 316.818 510.669 319.037Z" fill="#2C3A64"/>
<path d="M466.206 328.511H446.889C447.329 328.003 448.069 327.512 449.323 327.309C452.297 326.831 457.446 325.127 458.594 321.35C458.631 321.23 458.664 321.105 458.693 320.979C459.604 316.951 466.237 322.214 466.237 322.214C466.237 322.214 466.257 322.375 466.288 322.65C466.4 323.776 466.66 326.86 466.206 328.511Z" fill="#2C3A64"/>
<path d="M450.11 221.771C450.11 221.771 451.118 234.235 452.311 249.217C453.919 269.569 455.855 294.569 456.051 299.304C456.381 307.529 457.71 320.689 457.71 320.689C457.71 320.689 460.858 323.814 467.159 322.498C467.159 322.498 472.776 303.719 474.38 283.851C474.404 283.524 474.431 283.196 474.455 282.869C475.946 262.641 478.268 220.049 478.268 220.049L450.11 221.771Z" fill="#35488B"/>
<path d="M450.11 221.771C450.11 221.771 451.118 234.235 452.31 249.217L474.367 283.845C474.391 283.517 474.417 283.19 474.441 282.863C475.933 262.635 478.254 220.043 478.254 220.043L450.11 221.771Z" fill="#2C3A64"/>
<path d="M454.711 223.25C454.711 223.25 472.866 268.391 484.804 289.603C496.742 310.815 500.471 316.737 500.471 316.737C500.471 316.737 507.312 314.023 507.934 312.172C507.934 312.172 503.369 271.219 495.374 261.236C490.848 255.595 485.55 238.676 485.301 232.747C485.053 226.818 483.684 215.111 483.684 215.111L454.711 223.25Z" fill="#35488B"/>
<path d="M464.022 153.575C463.214 148.848 463.19 146.046 463.19 146.046L472.402 138.684C472.059 148.807 478.6 153.675 478.6 153.675C478.6 153.675 466.325 159.669 459.239 157.45C460.581 155.879 462.202 154.566 464.022 153.575Z" fill="#935C2F"/>
<path d="M461.021 145.876C461.021 145.876 472.739 147.807 473.839 140.552C474.939 133.297 477.192 128.657 469.758 127.117C462.323 125.576 460.444 128.129 459.483 130.462C458.522 132.795 458 145.189 461.021 145.876Z" fill="#A16D3C"/>
<path d="M419.861 160.837L417.368 159.309C417.368 159.309 414.257 154.753 408.944 157.583C408.944 157.583 406.838 158.914 408.251 160.029C409.663 161.144 409.283 160.514 411.241 162.129C413.199 163.743 415.729 164.311 417.362 163.438L419.456 163.241L419.861 160.837Z" fill="#A16D3C"/>
<path d="M416.9 161.312C417.542 159.32 417.848 159.143 417.848 159.143C417.848 159.143 438.025 161.509 439.926 161.648C441.827 161.788 468.244 156.39 468.244 156.39L480.727 171.411C480.727 171.411 443.954 172.786 439.145 172.338C431.192 171.601 416.77 164.265 416.77 164.265C416.557 163.286 416.602 162.269 416.9 161.312V161.312Z" fill="#D3782F"/>
<path d="M485.068 217.418C485.104 218.193 483.493 219.044 482.796 219.356C477.528 221.697 472.622 223.325 467.08 223.853C460.506 224.523 452.737 223.056 450.075 223.089C449.8 223.088 449.535 222.989 449.327 222.81C449.151 222.668 449.008 214.703 449.151 204.664C449.151 204.275 449.151 203.85 449.184 203.464V203.326C449.194 202.279 449.211 201.218 449.235 200.145C449.301 197.21 449.413 194.196 449.541 191.198C449.734 186.784 449.998 182.446 450.363 178.603C450.746 174.59 451.244 171.114 451.851 168.649C453.272 162.975 456.541 159.239 459.525 156.49L461.976 154.343C464.553 154.906 467.247 154.583 469.615 153.426C472.42 152.052 475.476 150.572 475.973 150.924C479.762 153.732 482.312 160.106 483.618 168.208C484.344 172.937 484.688 177.717 484.646 182.5C484.637 184.447 484.576 186.419 484.463 188.416C483.83 199.108 484.481 208.391 484.853 213.783C484.961 215.327 485.044 216.569 485.068 217.418Z" fill="#E69D43"/>
<path d="M422.772 118.507L348.66 106.833C347.149 106.597 345.605 106.966 344.368 107.858C343.13 108.75 342.3 110.093 342.06 111.592L338.78 132.079C338.628 133.028 338.87 135.695 338.87 135.695L341.541 136.09C341.694 136.123 341.849 136.145 342.005 136.158V136.158C342.51 136.197 343.018 136.129 343.494 135.957C346.059 135.039 348.825 134.819 351.504 135.32C354.184 135.82 356.679 137.023 358.731 138.803C360.784 140.583 362.318 142.876 363.176 145.443C364.033 148.01 364.182 150.758 363.607 153.401C363.032 156.044 361.754 158.487 359.905 160.475C358.057 162.463 355.706 163.924 353.096 164.706C350.486 165.488 347.713 165.564 345.064 164.924C342.415 164.284 339.987 162.953 338.032 161.068C337.642 160.685 337.132 160.445 336.586 160.389V160.389L333.792 159.975L330.311 184.964C330.074 186.444 330.44 187.957 331.327 189.17C332.215 190.383 333.552 191.196 335.044 191.432L356.2 194.766C356.648 194.837 357.071 195.02 357.428 195.298C357.785 195.575 358.065 195.939 358.241 196.354C358.418 196.769 358.484 197.221 358.435 197.669C358.386 198.117 358.222 198.544 357.96 198.912C356.584 200.82 355.675 203.02 355.307 205.338C353.798 214.773 361.421 223.556 371.693 222.825C376.866 222.459 382.694 218.156 384.58 213.362C385.897 210.068 386.019 206.422 384.925 203.049C384.79 202.633 384.765 202.189 384.852 201.76C384.939 201.331 385.135 200.932 385.422 200.599C385.709 200.267 386.076 200.013 386.49 199.861C386.903 199.709 387.349 199.665 387.785 199.732L409.093 203.108C409.832 203.223 410.587 203.193 411.314 203.019C412.041 202.845 412.727 202.53 413.331 202.094C413.936 201.657 414.448 201.106 414.838 200.473C415.227 199.84 415.488 199.136 415.604 198.403L427.387 124.822C427.619 123.377 427.263 121.901 426.397 120.717C425.532 119.533 424.228 118.738 422.772 118.507V118.507Z" fill="#4A75CB"/>
<path d="M476.244 167.992C476.244 167.992 470.563 194.286 449.235 200.142C449.301 197.207 449.413 194.194 449.541 191.196C449.734 186.782 449.998 182.444 450.364 178.601C450.706 178.423 451.062 178.271 451.428 178.147C458.667 175.786 476.244 167.992 476.244 167.992Z" fill="#D3782F"/>
<path d="M381.836 212.96C383.154 209.666 383.276 206.02 382.179 202.647C382.045 202.23 382.02 201.785 382.108 201.356C382.195 200.926 382.392 200.526 382.68 200.193C382.968 199.861 383.337 199.607 383.752 199.456C384.167 199.305 384.614 199.262 385.051 199.331L406.363 202.687C407.855 202.921 409.379 202.559 410.601 201.679C411.823 200.799 412.642 199.474 412.88 197.995L424.662 124.411C424.776 123.696 424.748 122.965 424.578 122.26C424.408 121.555 424.099 120.891 423.67 120.305C423.241 119.718 422.7 119.221 422.077 118.842C421.455 118.463 420.763 118.21 420.041 118.096L345.93 106.422C344.419 106.187 342.875 106.556 341.638 107.448C340.401 108.341 339.57 109.683 339.33 111.181L336.049 131.669C335.952 132.274 336.015 132.895 336.233 133.468C336.451 134.042 336.816 134.55 337.292 134.941C337.767 135.333 338.338 135.595 338.947 135.701C339.556 135.807 340.182 135.754 340.764 135.546C343.329 134.628 346.095 134.408 348.774 134.909C351.454 135.409 353.95 136.612 356.002 138.392C358.055 140.172 359.59 142.464 360.447 145.032C361.304 147.599 361.453 150.347 360.878 152.99C360.303 155.634 359.025 158.076 357.176 160.064C355.328 162.052 352.977 163.513 350.366 164.295C347.756 165.078 344.983 165.153 342.333 164.513C339.684 163.872 337.256 162.541 335.301 160.655C334.982 160.346 334.582 160.13 334.147 160.03C333.712 159.93 333.257 159.951 332.833 160.09C332.409 160.23 332.031 160.482 331.742 160.819C331.452 161.157 331.262 161.566 331.191 162.004L327.559 184.56C327.442 185.293 327.471 186.042 327.646 186.764C327.82 187.485 328.136 188.166 328.576 188.767C329.015 189.367 329.57 189.876 330.208 190.264C330.846 190.652 331.555 190.911 332.294 191.028L353.463 194.362C353.912 194.432 354.335 194.615 354.692 194.893C355.05 195.171 355.33 195.534 355.506 195.949C355.683 196.364 355.749 196.817 355.7 197.265C355.65 197.713 355.486 198.141 355.223 198.508C353.852 200.417 352.948 202.618 352.583 204.934C351.072 214.369 358.695 223.152 368.97 222.421C374.12 222.057 379.962 217.754 381.836 212.96Z" fill="#1C75BC"/>
<path d="M419.949 177.796L416.902 177.296C416.902 177.296 413.428 172.31 407.373 175.114C407.373 175.114 404.97 176.448 406.559 177.694C408.147 178.94 407.725 178.254 409.923 180.057C412.121 181.859 414.983 182.577 416.847 181.698L419.223 181.575L419.949 177.796Z" fill="#A16D3C"/>
<path d="M417.619 179.323C417.718 177.1 418.91 176.862 418.91 176.862C418.91 176.862 442.005 175.348 443.985 174.959C445.965 174.571 464.361 159.466 464.361 159.466C464.361 159.466 471.469 153.138 476.45 155.268C480.778 157.127 482.133 160.793 482.351 164.164C482.472 166.131 481.993 168.088 480.976 169.78C479.959 171.472 478.45 172.821 476.648 173.65C468.391 177.475 451.879 184.984 448.119 185.63C439.759 187.072 418.239 182.45 418.239 182.45C417.793 181.469 417.581 180.399 417.619 179.323V179.323Z" fill="#E69D43"/>
<path d="M459.483 130.462C459.483 130.462 454.726 126.971 457.829 121.531C457.829 121.531 461.569 122.759 466.887 121.531C472.204 120.302 476.957 122.044 477.577 123.888C477.577 123.888 479.645 124.708 479.852 127.785C480.059 130.861 473.839 140.552 473.839 140.552C473.839 140.552 472.519 138.911 472.873 137.783C473.227 136.655 474.371 134.143 472.976 134.143C471.582 134.143 471.115 136.194 470.556 135.374C469.998 134.554 471.021 131.119 469.366 130.554C467.712 129.989 461.344 131.501 459.483 130.462Z" fill="#2C3A64"/>
<path d="M297.824 325.893L276.875 231.556H282.641C283.3 231.553 283.931 231.293 284.396 230.831C284.861 230.369 285.124 229.743 285.125 229.09V225.904C285.124 225.251 284.861 224.625 284.396 224.163C283.931 223.701 283.3 223.441 282.641 223.438H209.489C208.831 223.441 208.2 223.701 207.734 224.163C207.268 224.625 207.006 225.251 207.003 225.904V229.09C207.006 229.743 207.268 230.369 207.734 230.831C208.2 231.293 208.831 231.554 209.489 231.556H216.913L195.963 325.893C195.896 326.195 195.889 326.507 195.943 326.812C195.997 327.116 196.111 327.407 196.279 327.668C196.446 327.929 196.664 328.154 196.919 328.332C197.175 328.509 197.463 328.635 197.767 328.702C198.071 328.769 198.386 328.776 198.693 328.722C199 328.668 199.294 328.555 199.557 328.389C199.819 328.223 200.047 328.007 200.226 327.753C200.404 327.5 200.531 327.214 200.599 326.913L221.775 231.556H272.013L293.189 326.913C293.325 327.522 293.699 328.053 294.23 328.39C294.76 328.726 295.403 328.841 296.018 328.708C296.633 328.57 297.167 328.197 297.505 327.67C297.844 327.142 297.958 326.504 297.824 325.893Z" fill="#C3E0F4"/>
<path d="M436.747 268.121C428.994 260.739 401.078 307.322 401.078 307.322C401.078 307.322 444.502 275.505 436.747 268.121Z" fill="#ACD29A"/>
<path d="M435.816 289.655C428.952 286.932 407.014 309.87 402.073 315.166C397.937 314.631 393.773 314.33 389.603 314.265C354.863 313.649 339.105 329.253 339.105 329.253L436.012 329.581C436.012 329.581 427.432 318.771 403.076 315.303C409.016 312.517 426.617 304.393 433.026 302.837C440.78 300.945 443.572 292.73 435.816 289.655Z" fill="#ACD29A"/>
<path d="M408.484 242.903H387.57C386.95 242.901 386.34 243.06 385.802 243.364C385.263 243.668 384.813 244.106 384.498 244.635C384.182 245.165 384.012 245.766 384.003 246.381C383.994 246.996 384.148 247.602 384.448 248.14C385.713 250.409 381.266 270.067 371.896 270.58C369.032 270.733 366.183 270.084 363.674 268.706C361.165 267.328 359.098 265.277 357.709 262.789C356.32 260.3 355.666 257.474 355.821 254.633C355.976 251.793 356.934 249.054 358.585 246.728C358.844 246.367 358.997 245.942 359.029 245.501C359.061 245.059 358.969 244.617 358.765 244.224C358.56 243.83 358.251 243.499 357.87 243.268C357.489 243.037 357.052 242.915 356.605 242.914H333.579C332.068 242.914 330.619 243.509 329.55 244.568C328.481 245.628 327.881 247.065 327.88 248.563C327.88 248.563 325.795 273.07 324.019 272.191C322.143 271.262 320.094 270.728 317.999 270.624H317.98C317.722 270.611 317.463 270.604 317.203 270.604C316.943 270.604 313.153 270.539 313.153 270.539L312.578 300.824L315.879 300.859C319.009 300.765 321.724 300.475 324.14 299.255C324.534 299.06 324.972 298.968 325.412 298.987C325.851 299.007 326.279 299.138 326.654 299.367C327.028 299.597 327.338 299.917 327.552 300.299C327.767 300.68 327.88 301.109 327.88 301.546V322.93C327.881 324.428 328.481 325.865 329.549 326.924C330.618 327.983 332.066 328.578 333.576 328.578H408.697C410.173 328.578 411.588 327.996 412.632 326.961C413.675 325.926 414.262 324.523 414.262 323.059V248.631C414.261 247.111 413.652 245.655 412.569 244.58C411.485 243.506 410.016 242.903 408.484 242.903V242.903Z" fill="#D86713"/>
<path d="M309.756 300.457C313.242 301.231 316.892 300.778 320.079 299.176C320.473 298.981 320.911 298.889 321.351 298.909C321.791 298.928 322.218 299.059 322.593 299.289C322.968 299.519 323.277 299.84 323.492 300.221C323.706 300.603 323.819 301.033 323.819 301.469V322.854C323.819 324.352 324.419 325.789 325.487 326.849C326.555 327.908 328.004 328.503 329.515 328.503H404.647C406.123 328.503 407.538 327.922 408.582 326.887C409.625 325.852 410.211 324.448 410.211 322.985V248.567C410.211 247.048 409.603 245.59 408.519 244.515C407.436 243.441 405.966 242.837 404.434 242.837H383.519C382.902 242.838 382.296 242.998 381.76 243.301C381.223 243.604 380.776 244.041 380.462 244.568C380.147 245.094 379.976 245.693 379.966 246.305C379.955 246.917 380.106 247.522 380.402 248.059C381.718 250.427 382.371 253.102 382.293 255.805C382.214 258.508 381.408 261.141 379.958 263.43C378.507 265.72 376.465 267.583 374.043 268.825C371.621 270.067 368.909 270.644 366.186 270.496C363.464 270.347 360.831 269.478 358.562 267.98C356.292 266.481 354.468 264.408 353.28 261.974C352.091 259.54 351.581 256.835 351.803 254.14C352.024 251.445 352.969 248.858 354.539 246.647C354.798 246.286 354.951 245.861 354.982 245.419C355.014 244.978 354.923 244.536 354.718 244.142C354.514 243.748 354.205 243.418 353.824 243.186C353.443 242.955 353.006 242.832 352.559 242.831H329.528C328.017 242.831 326.567 243.426 325.499 244.486C324.43 245.546 323.83 246.983 323.83 248.482V269.742C323.83 270.193 323.713 270.637 323.492 271.031C323.271 271.425 322.951 271.756 322.564 271.993C322.178 272.23 321.736 272.365 321.282 272.386C320.828 272.406 320.375 272.311 319.969 272.11C317.851 271.06 315.516 270.515 313.148 270.519C303.516 270.519 295.965 279.365 298.304 289.313C299.485 294.319 304.687 299.375 309.756 300.457Z" fill="#F1A34F"/>
<path d="M92.249 328.926L105.749 329.024C105.749 329.024 105.28 325.784 96.1916 324.948C92.6714 315.242 82.3177 289.127 73.3279 290.362C64.4526 291.582 85.4726 315.539 94.0223 324.854C92.8913 324.853 91.762 324.941 90.6451 325.118C88.5836 321.051 84.5002 315.299 77.946 315.563C70.9694 315.842 80.4739 322.162 87.0171 326.037C83.7015 327.215 81.9128 328.847 81.9128 328.847L92.095 328.922L92.2798 329.02L92.249 328.926Z" fill="#ACD29A"/>
<path d="M140.487 220.722L142.485 222.33C142.485 222.33 147.95 220.386 149.184 226.827C149.184 226.827 149.512 229.572 147.758 229.576C146.005 229.581 146.729 229.278 144.238 229.358C141.747 229.439 139.697 228.132 139.334 226.133L138.146 224.44L140.487 220.722Z" fill="#EA8E50"/>
<path d="M140.26 224.173C141.855 222.524 141.726 221.304 141.726 221.304C141.726 221.304 123.271 206.317 121.401 205.095C120.125 204.264 106.532 192.315 100.178 185.02C97.0256 181.416 93.1248 182.814 88.6651 184.089L84.9865 185.134C80.5466 186.397 79.3916 192.553 83.035 195.553C93.2854 203.98 110.363 213.466 113.557 215.458C121.478 220.407 137.008 226.286 137.008 226.286C138.223 225.803 139.329 225.085 140.26 224.173V224.173Z" fill="#1E3D70"/>
<path d="M161.859 316.089C161.859 316.089 166.329 319.413 173.2 317.667C173.2 317.667 178.734 316.417 179.948 319.155C179.948 319.155 171.462 323.43 169.315 324.61C167.696 325.483 166.015 326.882 164.814 327.958C164.589 328.159 164.326 328.313 164.04 328.41C163.753 328.507 163.45 328.545 163.149 328.522C162.847 328.499 162.553 328.415 162.285 328.276C162.017 328.136 161.781 327.944 161.59 327.711C161.216 327.257 160.79 326.714 160.323 326.085C159.003 324.327 155.965 318.647 155.965 318.647L161.859 316.089Z" fill="#233862"/>
<path d="M163.951 314.553C163.951 314.553 161.223 320.789 154.931 319.644C154.931 319.644 142.084 309.122 133.273 298.192C130.412 294.642 127.975 291.048 126.542 287.759C120.699 274.342 104.928 254.33 94.9025 244.188L119.984 235.187C119.984 235.187 128.021 251.218 138.711 270.911C146.421 285.099 155.503 301.19 163.951 314.553Z" fill="#2B478B"/>
<path d="M138.714 270.911L133.27 298.187C130.41 294.637 127.973 291.043 126.54 287.755C120.697 274.337 104.926 254.325 94.9003 244.183L119.982 235.182C119.982 235.182 128.023 251.218 138.714 270.911Z" fill="#233862"/>
<path d="M118.147 319.631C118.147 319.631 117.874 324.606 123.955 325.27C123.955 325.27 127.431 325.289 127.442 328.455L109.762 328.512C109.762 328.512 109.249 327.233 109.124 324.497C109.029 322.396 111.179 316.901 111.179 316.901L118.147 319.631Z" fill="#233862"/>
<path d="M111.766 235.184C111.766 235.184 122.943 247.365 130.038 269.308C133.897 281.246 122.963 311.262 120.831 321.693C120.831 321.693 113.496 322.31 108.479 320.384C108.479 320.384 108.099 298.842 111.032 282.239C112.673 272.947 96.3171 262.367 89.1689 245.58C84.3066 234.159 90.2227 234.353 97.4919 234.078L111.766 235.184Z" fill="#2B478B"/>
<path d="M98.856 180.85C92.6385 184.342 79.9086 181.121 79.9086 181.121C79.9086 181.121 85.0789 175.256 82.7247 165.816L87.6068 168.275L92.8519 170.915C93.1286 172.458 93.3203 174.015 93.4261 175.579C93.4855 176.349 93.5405 177.211 93.5779 178.151C95.4891 178.723 97.2781 179.638 98.856 180.85V180.85Z" fill="#FFB07B"/>
<path d="M121.667 234.558C121.667 235.649 120.408 236.16 120.14 236.212C117.632 236.668 110.629 239.37 104.321 239.989C99.0101 240.541 94.0774 240.015 88.6585 238.938C87.9412 238.794 86.2581 238.344 86.1371 237.663C85.9875 236.917 65.2359 195.711 81.3695 178.01C81.7479 177.595 84.9315 178.343 87.8444 179.029C90.2988 179.605 92.8739 179.396 95.2016 178.433L97.932 179.858C101.287 181.71 107.63 188.294 108.374 193.461C108.75 196.079 110.266 198.043 110.704 200.345C110.867 201.201 111.033 202.035 111.203 202.848C111.533 204.448 111.873 205.969 112.224 207.409C113.172 211.317 114.173 214.679 115.157 217.586C116.204 220.671 117.229 223.238 118.147 225.385C119.337 228.169 120.347 230.249 120.969 231.844C121.403 232.965 121.667 233.845 121.667 234.558Z" fill="#2A4E96"/>
<path d="M120.961 231.844C91.6704 218.164 81.5256 191.877 81.5256 191.877C81.5256 191.877 105.324 200.583 111.194 202.848C111.524 204.449 111.865 205.969 112.215 207.409C113.163 211.317 114.164 214.68 115.148 217.586C116.195 220.672 117.22 223.238 118.138 225.385C119.328 228.169 120.331 230.249 120.961 231.844Z" fill="#1E3D70"/>
<path d="M203.692 202.734L197.419 183.004C197.142 182.13 196.532 181.398 195.719 180.962C194.907 180.526 193.955 180.421 193.065 180.669V180.669C192.973 180.696 192.883 180.728 192.79 180.761L190.59 181.49C190.59 181.49 187.147 185.007 184.674 185.716C177.075 187.899 169.863 183.881 167.091 176.532C164.011 168.36 167.586 159.385 175.867 156.795C178.703 155.909 184.28 157.561 184.28 157.561L186.518 156.824C186.826 156.732 187.112 156.581 187.361 156.378C187.609 156.175 187.814 155.926 187.964 155.643C188.114 155.361 188.206 155.052 188.234 154.734C188.262 154.417 188.226 154.097 188.128 153.793L181.224 132.072C180.771 130.647 179.766 129.458 178.429 128.768C177.092 128.077 175.533 127.942 174.096 128.391L153.705 134.769C153.272 134.906 152.811 134.931 152.366 134.841C151.92 134.751 151.505 134.549 151.161 134.255C150.816 133.961 150.554 133.584 150.397 133.161C150.241 132.738 150.197 132.282 150.269 131.837C150.64 129.526 150.462 127.161 149.749 124.93C146.858 115.842 136.109 111.373 127.273 116.564C122.822 119.183 119.544 125.596 120.023 130.702C120.328 134.223 121.857 137.53 124.349 140.057C124.657 140.369 124.879 140.755 124.994 141.177C125.109 141.599 125.112 142.043 125.005 142.467C124.897 142.891 124.682 143.281 124.38 143.598C124.077 143.916 123.698 144.152 123.277 144.283L102.761 150.701C102.05 150.923 101.389 151.283 100.818 151.758C100.246 152.234 99.7751 152.816 99.4306 153.473C99.0861 154.129 98.8754 154.846 98.8104 155.583C98.7454 156.32 98.8274 157.063 99.0518 157.768L121.594 228.638C122.037 230.03 123.019 231.19 124.325 231.864C125.63 232.537 127.152 232.669 128.555 232.23L199.93 209.903C200.651 209.677 201.321 209.313 201.901 208.83C202.481 208.348 202.959 207.757 203.308 207.092C203.658 206.426 203.871 205.699 203.937 204.951C204.003 204.203 203.92 203.45 203.692 202.734V202.734Z" fill="#4A75CB"/>
<path d="M117.863 131.42C118.165 134.941 119.694 138.249 122.186 140.774C122.494 141.087 122.716 141.473 122.831 141.895C122.946 142.317 122.95 142.761 122.842 143.185C122.735 143.609 122.52 143.998 122.217 144.316C121.915 144.634 121.535 144.87 121.115 145.001L100.598 151.419C99.887 151.641 99.2267 152 98.6552 152.476C98.0838 152.952 97.6123 153.534 97.2679 154.19C96.9234 154.847 96.7127 155.564 96.6477 156.301C96.5827 157.038 96.6647 157.781 96.8891 158.486L119.423 229.354C119.866 230.745 120.848 231.906 122.153 232.579C123.459 233.253 124.981 233.384 126.384 232.945L197.76 210.62C198.483 210.396 199.153 210.032 199.734 209.55C200.314 209.068 200.793 208.477 201.144 207.811C201.494 207.146 201.708 206.418 201.775 205.67C201.841 204.922 201.759 204.169 201.531 203.452L195.257 183.722C195.071 183.14 194.736 182.616 194.284 182.202C193.833 181.787 193.28 181.496 192.681 181.357C192.082 181.219 191.457 181.237 190.867 181.411C190.277 181.584 189.742 181.907 189.316 182.347C187.44 184.3 185.071 185.718 182.455 186.456C179.839 187.193 177.072 187.223 174.44 186.541C171.809 185.859 169.41 184.492 167.491 182.58C165.573 180.668 164.206 178.281 163.532 175.668C162.857 173.055 162.901 170.311 163.657 167.72C164.414 165.129 165.856 162.787 167.833 160.935C169.811 159.084 172.252 157.791 174.904 157.192C177.555 156.592 180.32 156.708 182.912 157.526C183.337 157.666 183.792 157.686 184.228 157.584C184.663 157.482 185.062 157.263 185.379 156.95C185.696 156.637 185.92 156.243 186.025 155.811C186.13 155.38 186.113 154.928 185.974 154.506L179.07 132.788C178.617 131.363 177.611 130.174 176.274 129.485C174.937 128.795 173.379 128.66 171.942 129.109L151.551 135.487C151.119 135.622 150.659 135.645 150.214 135.554C149.77 135.463 149.357 135.261 149.014 134.968C148.67 134.674 148.408 134.298 148.253 133.876C148.097 133.453 148.052 132.999 148.123 132.555C148.49 130.241 148.306 127.875 147.587 125.644C144.696 116.558 133.946 112.089 125.11 117.278C120.659 119.894 117.381 126.314 117.863 131.42Z" fill="#1C75BC"/>
<path d="M138.097 223.912L140.628 224.833C140.628 224.833 145.688 221.278 148.852 227.059C148.852 227.059 149.993 229.583 148.192 230.131C146.39 230.679 147.041 230.164 144.502 231.004C141.963 231.844 139.459 231.237 138.5 229.439L136.78 228.187L138.097 223.912Z" fill="#FFB07B"/>
<path d="M140.179 227.462C141.116 225.04 141.543 223.942 141.543 223.942C141.543 223.942 122.417 208.482 120.47 207.156C119.15 206.252 105.921 196.464 99.4765 188.813C97.9077 186.954 95.8589 185.553 93.5493 184.759C91.2397 183.965 88.756 183.809 86.3637 184.307L82.3485 185.143C77.5082 186.151 75.9263 192.237 79.6864 195.434C90.2778 204.439 108.141 214.891 111.472 217.056C119.74 222.448 138.027 230.004 138.027 230.004C138.027 230.004 139.444 229.363 140.179 227.462Z" fill="#2A4E96"/>
<path d="M93.4305 175.579C87.3163 175.919 83.3385 170.911 83.3385 170.911C83.3385 170.911 86.1041 169.384 87.6111 168.275L92.8562 170.916C93.1329 172.459 93.3246 174.015 93.4305 175.579V175.579Z" fill="#EA8E50"/>
<path d="M96.0355 169.351C96.0355 169.351 86.7708 175.945 82.7247 170.159C78.6787 164.372 74.7493 161.328 80.4938 156.872C86.2383 152.416 88.9445 153.817 90.7706 155.429C92.5967 157.042 98.3456 167.488 96.0355 169.351Z" fill="#FFB07B"/>
<path d="M91.7452 150.206C91.5571 148.901 91.1938 147.627 90.6649 146.417C90.6649 146.417 90.0841 148.807 85.6838 148.477C81.2836 148.148 74.3048 148.914 71.9793 153.88C71.8319 154.197 71.6998 154.535 71.5832 154.856C71.163 153.765 71.0596 152.1 71.0596 152.1C70.2236 154.242 71.0596 156.922 71.0596 156.922C71.0464 156.998 71.0354 157.077 71.0244 157.155C70.0542 157.969 69.2379 160.503 69.2379 160.503C69.5305 159.796 70.2456 159.335 70.8836 159.052C70.8638 162.923 72.4457 166.706 75.2245 167.832C79.2859 169.48 79.2529 168.223 83.3385 170.911C83.3385 170.911 84.4386 169.563 83.6883 168.657C82.9381 167.752 80.1175 166.434 81.695 165.116C83.2725 163.798 83.8533 165.279 84.4342 164.374C85.015 163.468 82.1108 160.832 85.8467 158.36C89.5825 155.888 92.0752 152.429 91.7452 150.206Z" fill="#233862"/>
<path d="M330.25 328.545C330.25 328.545 325.566 321.676 318.233 322.23C316.004 322.398 312.383 322.937 308.178 323.511C305.006 312.531 296.26 286.433 284.467 284.962C272.422 283.463 295.992 312.487 305.63 323.851C303.87 324.08 302.049 324.305 300.205 324.506C295.103 319.101 286.21 311.095 278.785 311.71C271.359 312.325 285.277 319.96 295.336 324.953C289.176 325.411 283.312 325.361 279.735 323.991C270.976 320.63 262.926 328.547 262.926 328.547L330.25 328.545Z" fill="#82B378"/>
<path d="M565.888 328.51H0.642437C0.287629 328.51 0 328.795 0 329.147V329.363C0 329.715 0.287629 330 0.642437 330H565.888C566.242 330 566.53 329.715 566.53 329.363V329.147C566.53 328.795 566.242 328.51 565.888 328.51Z" fill="#2E3552"/>
</svg>
