<svg width="567" height="330" viewBox="0 0 567 330" fill="none" xmlns="http://www.w3.org/2000/svg">
<path d="M40.3032 328.971C40.3032 328.971 -29.7541 268.242 14.8625 196.837C59.479 125.433 119.345 161.36 116.482 78.2255C113.619 -4.9089 254.237 -12.0237 298.985 12.0947C343.733 36.213 347.683 51.7465 440.083 42.1668C532.483 32.5871 575.459 103.348 545.092 152.447C509.623 209.794 616.467 215.35 535.282 329.114L40.3032 328.971Z" fill="#EBF3FA"/>
<g opacity="0.4">
<path opacity="0.4" d="M524.418 124.619C524.42 129.012 524.027 133.396 523.242 137.719C521.416 147.721 517.498 157.228 511.742 165.617C498.622 184.769 476.562 197.338 451.561 197.338C421.82 197.338 396.24 179.557 384.92 154.06C383.414 150.675 382.172 147.179 381.207 143.603C378.18 132.349 377.887 120.536 380.351 109.146C380.351 109.087 380.375 109.033 380.386 108.975C384.246 91.5688 394.364 76.1785 408.827 65.7158C410.323 64.6311 411.868 63.6027 413.449 62.633C424.908 55.5922 438.105 51.8751 451.561 51.8981C453.412 51.8981 455.247 51.9669 457.066 52.1047C470.028 53.0624 482.492 57.4841 493.152 64.9058V64.9058C501.138 70.4558 507.933 77.5411 513.14 85.7463C514.255 87.5058 515.297 89.3137 516.266 91.1701C521.639 101.508 524.435 112.986 524.418 124.631V124.619Z" fill="#D7E5FF"/>
<path opacity="0.4" d="M426.803 92.0674C423.895 96.6647 428.017 104.645 419.296 102.469C410.575 100.292 405.241 99.3226 404.757 104.159C404.272 108.996 411.299 108.996 411.299 114.075C411.299 119.154 408.147 120.832 403.3 118.421C398.454 116.01 397.061 112.502 391.427 114.678C385.793 116.855 382.523 115.404 381.25 111.051C381.058 110.37 380.752 109.726 380.346 109.147C380.346 109.088 380.37 109.034 380.382 108.975C384.241 91.5692 394.36 76.1789 408.822 65.7162C410.318 64.6314 411.864 63.603 413.445 62.6333C415.715 62.7155 418.432 63.5725 420.738 66.4347C425.824 72.7249 429.207 69.5786 428.005 76.8338C426.803 84.089 428.732 85.0517 432.851 84.8169C436.971 84.5821 441.817 84.5821 442.299 87.719C442.781 90.8559 429.718 87.4724 426.803 92.0674Z" fill="#AEC3FF"/>
<path opacity="0.4" d="M456.97 135.597C456.97 135.597 450.549 137.651 448.853 133.178C447.157 128.705 449.088 127.738 443.402 126.407C437.716 125.075 437.222 121.208 433.587 121.692C429.953 122.176 431.771 123.627 427.532 126.771C423.292 129.915 419.413 128.464 419.533 134.265C419.653 140.067 425.953 140.978 427.226 144.787C428.499 148.595 426.318 150.227 429.042 153.129C431.766 156.031 436.857 154.761 434.495 158.75C432.133 162.739 428.499 165.824 430.315 171.99C432.131 178.156 430.861 178.52 433.95 182.873C437.039 187.226 443.035 188.677 443.943 185.775C444.851 182.873 439.765 179.065 441.4 176.162C443.035 173.26 445.762 175.256 446.851 170.903C447.94 166.55 452.363 166.55 452.733 163.528C453.102 160.506 447.402 155.909 449.582 153.974C451.763 152.039 456.125 157.482 459.517 152.645C462.91 147.808 460.607 143.939 464.119 139.344C467.631 134.749 459.393 132.941 456.97 135.597Z" fill="#AEC3FF"/>
<path opacity="0.4" d="M524.418 124.619C524.42 129.012 524.027 133.396 523.242 137.719C521.416 147.721 517.498 157.228 511.742 165.617C509.845 166.267 507.777 166.211 505.917 165.46C496.832 161.832 503.565 152.039 507.19 147.146C510.816 142.252 501.544 144.427 494.832 139.893C488.12 135.359 495.559 123.206 488.654 125.202C481.749 127.197 473.388 129.735 469.391 123.025C465.394 116.314 473.026 115.225 469.573 109.604C466.119 103.983 471.572 100.717 478.477 100.172C485.382 99.6275 484.474 94.732 493.016 94.0064C501.558 93.2809 501.375 104.164 510.825 103.438C520.275 102.713 519.849 104.889 519.849 104.889C520.53 104.872 521.205 105.014 521.821 105.302C523.55 111.596 524.423 118.093 524.418 124.619Z" fill="#AEC3FF"/>
<path opacity="0.4" d="M516.266 91.1584C508.409 94.9738 505.254 84.5958 498.537 87.7163C491.767 90.8602 492.95 84.8142 487.622 80.9424C482.293 77.0706 471.624 84.0887 472.113 78.0403C472.603 71.9919 480.594 73.6872 482.291 68.8527C483.987 64.0182 491.741 65.2251 491.741 65.2251C492.195 65.0548 492.669 64.9473 493.152 64.9058C501.138 70.4558 507.933 77.5411 513.14 85.7463C514.255 87.4979 515.297 89.3019 516.266 91.1584Z" fill="#AEC3FF"/>
<path opacity="0.4" d="M450.065 70.3039C450.065 70.3039 454.184 64.3729 447.642 62.6213C441.099 60.8697 441.222 63.1637 436.133 62.6213C431.044 62.0789 429.045 66.0118 432.861 70.3039C436.676 74.596 439.768 82.8326 443.212 78.4419C446.656 74.0512 446.007 70.7195 450.065 70.3039Z" fill="#AEC3FF"/>
</g>
<path d="M477.691 58.4978V284.842C477.691 288.8 474.828 292.012 471.294 292.012H144.075C140.546 292.012 137.681 288.8 137.681 284.842V58.4978C137.681 54.5344 140.544 51.3247 144.075 51.3247H471.294C474.828 51.3177 477.691 54.5344 477.691 58.4978Z" fill="#1C75BC" fill-opacity="0.32"/>
<path d="M477.691 57.7085V74.7971H137.681V57.7085C137.68 56.8697 137.844 56.0388 138.165 55.2635C138.486 54.4881 138.957 53.7835 139.55 53.1899C140.144 52.5963 140.85 52.1254 141.626 51.8041C142.402 51.4828 143.235 51.3174 144.075 51.3174H471.295C472.135 51.3171 472.968 51.4822 473.744 51.8034C474.521 52.1245 475.227 52.5954 475.821 53.1891C476.415 53.7827 476.886 54.4874 477.207 55.2629C477.528 56.0384 477.692 56.8695 477.691 57.7085V57.7085Z" fill="#1C75BC"/>
<path d="M148.082 63.0575C148.082 62.4695 148.257 61.8947 148.584 61.4058C148.911 60.9169 149.377 60.5359 149.921 60.311C150.465 60.0861 151.064 60.0274 151.642 60.1422C152.22 60.2571 152.751 60.5405 153.167 60.9564C153.583 61.3724 153.867 61.9022 153.982 62.479C154.096 63.0558 154.037 63.6535 153.811 64.1966C153.585 64.7397 153.203 65.2038 152.713 65.5302C152.223 65.8565 151.647 66.0305 151.058 66.03C150.667 66.03 150.28 65.9531 149.918 65.8037C149.557 65.6543 149.229 65.4353 148.953 65.1592C148.676 64.8832 148.457 64.5555 148.308 64.1948C148.158 63.8342 148.081 63.4477 148.082 63.0575V63.0575Z" fill="#DFEBFD"/>
<path d="M159.814 63.0575C159.814 62.4696 159.989 61.8949 160.316 61.406C160.643 60.9172 161.109 60.5362 161.653 60.3112C162.197 60.0863 162.796 60.0274 163.374 60.1421C163.951 60.2568 164.482 60.5399 164.899 60.9556C165.315 61.3713 165.599 61.901 165.714 62.4776C165.829 63.0542 165.77 63.6519 165.544 64.195C165.319 64.7382 164.937 65.2024 164.447 65.529C163.957 65.8557 163.382 66.03 162.793 66.03C162.003 66.03 161.245 65.7168 160.687 65.1594C160.128 64.6019 159.814 63.8458 159.814 63.0575Z" fill="#DFEBFD"/>
<path d="M171.843 63.0575C171.843 62.4696 172.017 61.8949 172.344 61.406C172.672 60.9172 173.137 60.5362 173.681 60.3112C174.225 60.0863 174.824 60.0274 175.402 60.1421C175.98 60.2568 176.51 60.5399 176.927 60.9556C177.343 61.3713 177.627 61.901 177.742 62.4776C177.857 63.0542 177.798 63.6519 177.573 64.195C177.347 64.7382 176.965 65.2024 176.476 65.529C175.986 65.8557 175.41 66.03 174.821 66.03C174.031 66.03 173.273 65.7168 172.715 65.1594C172.156 64.6019 171.843 63.8458 171.843 63.0575Z" fill="#DFEBFD"/>
<path opacity="0.5" d="M356.491 221.555H320.631V257.345H356.491V221.555Z" fill="#EBF3FA"/>
<path d="M323.325 253.257L333.916 234.196L341.705 244.799L345.594 240.556L353.835 253.257H323.325Z" fill="#1C75BC"/>
<path d="M338.965 231.46C338.965 230.919 339.125 230.391 339.427 229.941C339.728 229.491 340.156 229.14 340.657 228.933C341.157 228.726 341.708 228.672 342.24 228.778C342.772 228.883 343.26 229.144 343.643 229.526C344.027 229.909 344.288 230.396 344.393 230.927C344.499 231.457 344.445 232.007 344.238 232.507C344.03 233.007 343.679 233.434 343.228 233.735C342.777 234.035 342.247 234.196 341.705 234.196C340.979 234.195 340.282 233.907 339.768 233.394C339.254 232.881 338.965 232.186 338.965 231.46V231.46Z" fill="#1C75BC"/>
<path opacity="0.5" d="M410.043 156.04H320.631V207.763H410.043V156.04Z" fill="#EBF3FA"/>
<path d="M355.247 168.65V195.151L375.425 181.9L355.247 168.65Z" fill="#1C75BC"/>
<path d="M450.95 117.531C450.959 123.132 448.769 128.514 444.849 132.522C442.946 134.488 440.668 136.052 438.148 137.122C435.629 138.192 432.919 138.747 430.181 138.754H188.224C175.875 138.752 165.759 129.202 165.759 117.531C165.759 111.696 168.283 106.39 172.346 102.544C176.638 98.5167 182.314 96.2856 188.205 96.3098H430.188C441.605 96.3074 450.95 105.857 450.95 117.531Z" fill="#EBF3FA"/>
<path d="M450.949 117.53C450.959 123.132 448.769 128.513 444.849 132.522C442.946 134.487 440.668 136.051 438.148 137.122C435.628 138.192 432.919 138.747 430.181 138.754H386.397V96.3071H430.188C441.605 96.3071 450.949 105.856 450.949 117.53Z" fill="#F99746"/>
<path d="M423.238 125.244C422.695 125.243 422.153 125.203 421.615 125.124C419.496 124.806 417.519 123.868 415.934 122.43C414.348 120.991 413.226 119.115 412.708 117.04C412.191 114.965 412.301 112.783 413.026 110.77C413.75 108.757 415.056 107.004 416.778 105.732V105.732C418.155 104.715 419.755 104.038 421.445 103.756C423.135 103.475 424.868 103.598 426.501 104.115C428.135 104.632 429.622 105.528 430.841 106.729C432.06 107.931 432.977 109.403 433.515 111.027C434.054 112.65 434.199 114.378 433.939 116.068C433.679 117.759 433.021 119.363 432.019 120.751C431.017 122.138 429.7 123.269 428.176 124.05C426.652 124.831 424.964 125.24 423.25 125.244H423.238ZM417.827 107.164C416.389 108.228 415.299 109.694 414.695 111.376C414.091 113.059 414 114.882 414.435 116.616C414.869 118.349 415.809 119.915 417.135 121.116C418.462 122.316 420.115 123.098 421.886 123.36C423.657 123.623 425.466 123.356 427.085 122.592C428.704 121.828 430.06 120.603 430.981 119.07C431.902 117.538 432.346 115.767 432.259 113.982C432.171 112.197 431.555 110.478 430.489 109.043C429.058 107.12 426.921 105.843 424.547 105.491C422.174 105.138 419.757 105.74 417.827 107.164V107.164Z" fill="white"/>
<path d="M415.769 121.045L414.707 119.612L402.818 128.395L403.881 129.827L415.769 121.045Z" fill="white"/>
<path d="M399.205 132.165C399.08 131.998 398.99 131.807 398.939 131.605C398.889 131.402 398.878 131.192 398.909 130.985C398.94 130.779 399.011 130.58 399.119 130.401C399.227 130.222 399.368 130.066 399.536 129.942L406.538 124.776C406.706 124.652 406.897 124.561 407.1 124.511C407.303 124.46 407.515 124.449 407.722 124.48C407.929 124.511 408.128 124.582 408.307 124.69C408.487 124.797 408.643 124.939 408.768 125.107V125.107C409.019 125.447 409.125 125.872 409.063 126.289C409 126.707 408.774 127.082 408.434 127.333L401.435 132.499C401.095 132.75 400.669 132.855 400.251 132.793C399.833 132.73 399.456 132.505 399.205 132.165V132.165Z" fill="white"/>
<path d="M232.379 160.874H176.021C174.848 160.874 173.896 161.823 173.896 162.994V163.886C173.896 165.057 174.848 166.007 176.021 166.007H232.379C233.552 166.007 234.504 165.057 234.504 163.886V162.994C234.504 161.823 233.552 160.874 232.379 160.874Z" fill="#F99746"/>
<path d="M203.461 183.651H175.651C175.186 183.651 174.74 183.467 174.411 183.138C174.081 182.81 173.896 182.364 173.896 181.9C173.896 181.435 174.081 180.989 174.411 180.661C174.74 180.333 175.186 180.148 175.651 180.148H203.461C203.926 180.149 204.372 180.333 204.701 180.662C205.029 180.99 205.214 181.435 205.214 181.9V181.9C205.214 182.364 205.029 182.809 204.701 183.137C204.372 183.466 203.926 183.65 203.461 183.651V183.651Z" fill="#1C75BC"/>
<path d="M224.752 172.804H175.529C174.627 172.804 173.896 173.534 173.896 174.434V174.678C173.896 175.578 174.627 176.307 175.529 176.307H224.752C225.654 176.307 226.385 175.578 226.385 174.678V174.434C226.385 173.534 225.654 172.804 224.752 172.804Z" fill="#1C75BC"/>
<path d="M278.605 172.804H232.748C231.876 172.804 231.17 173.51 231.17 174.38V174.732C231.17 175.602 231.876 176.307 232.748 176.307H278.605C279.476 176.307 280.183 175.602 280.183 174.732V174.38C280.183 173.51 279.476 172.804 278.605 172.804Z" fill="#1C75BC"/>
<path d="M238.145 183.651H210.338C209.872 183.651 209.426 183.467 209.097 183.138C208.767 182.81 208.583 182.364 208.583 181.9V181.9C208.583 181.435 208.767 180.989 209.097 180.661C209.426 180.333 209.872 180.148 210.338 180.148H238.145C238.61 180.148 239.057 180.333 239.386 180.661C239.715 180.989 239.9 181.435 239.9 181.9V181.9C239.9 182.364 239.715 182.81 239.386 183.138C239.057 183.467 238.61 183.651 238.145 183.651V183.651Z" fill="#1C75BC"/>
<path d="M301.008 160.874H244.65C243.477 160.874 242.526 161.823 242.526 162.994V163.886C242.526 165.057 243.477 166.007 244.65 166.007H301.008C302.182 166.007 303.133 165.057 303.133 163.886V162.994C303.133 161.823 302.182 160.874 301.008 160.874Z" fill="#F99746"/>
<path d="M232.379 252.758H176.021C174.848 252.758 173.896 253.708 173.896 254.879V255.771C173.896 256.942 174.848 257.891 176.021 257.891H232.379C233.552 257.891 234.504 256.942 234.504 255.771V254.879C234.504 253.708 233.552 252.758 232.379 252.758Z" fill="#F99746"/>
<path d="M203.461 275.548H175.651C175.186 275.548 174.74 275.364 174.411 275.036C174.082 274.708 173.897 274.263 173.896 273.799V273.799C173.896 273.334 174.081 272.889 174.411 272.56C174.74 272.232 175.186 272.047 175.651 272.047H203.461C203.926 272.048 204.372 272.233 204.701 272.561C205.029 272.89 205.214 273.335 205.214 273.799V273.799C205.213 274.263 205.029 274.707 204.7 275.035C204.371 275.363 203.926 275.548 203.461 275.548V275.548Z" fill="#1C75BC"/>
<path d="M224.752 264.691H175.529C174.627 264.691 173.896 265.421 173.896 266.321V266.565C173.896 267.465 174.627 268.195 175.529 268.195H224.752C225.654 268.195 226.385 267.465 226.385 266.565V266.321C226.385 265.421 225.654 264.691 224.752 264.691Z" fill="#1C75BC"/>
<path d="M278.605 264.691H232.748C231.876 264.691 231.17 265.397 231.17 266.267V266.619C231.17 267.489 231.876 268.195 232.748 268.195H278.605C279.476 268.195 280.183 267.489 280.183 266.619V266.267C280.183 265.397 279.476 264.691 278.605 264.691Z" fill="#1C75BC"/>
<path d="M238.145 275.548H210.338C209.872 275.548 209.426 275.364 209.097 275.036C208.768 274.708 208.583 274.263 208.583 273.799V273.799C208.583 273.334 208.767 272.889 209.097 272.56C209.426 272.232 209.872 272.047 210.338 272.047H238.145C238.61 272.047 239.057 272.232 239.386 272.56C239.715 272.889 239.9 273.334 239.9 273.799V273.799C239.899 274.263 239.714 274.708 239.385 275.036C239.056 275.364 238.61 275.548 238.145 275.548Z" fill="#1C75BC"/>
<path d="M301.008 252.758H244.65C243.477 252.758 242.526 253.708 242.526 254.879V255.771C242.526 256.942 243.477 257.891 244.65 257.891H301.008C302.182 257.891 303.133 256.942 303.133 255.771V254.879C303.133 253.708 302.182 252.758 301.008 252.758Z" fill="#F99746"/>
<path d="M232.379 206.816H176.021C174.848 206.816 173.896 207.766 173.896 208.937V209.829C173.896 211 174.848 211.949 176.021 211.949H232.379C233.552 211.949 234.504 211 234.504 209.829V208.937C234.504 207.766 233.552 206.816 232.379 206.816Z" fill="#F99746"/>
<path d="M203.461 229.594H175.651C175.186 229.594 174.74 229.41 174.411 229.081C174.081 228.753 173.896 228.307 173.896 227.842C173.897 227.378 174.082 226.933 174.411 226.605C174.74 226.277 175.186 226.093 175.651 226.093H203.461C203.926 226.094 204.371 226.278 204.7 226.606C205.029 226.934 205.213 227.379 205.214 227.842V227.842C205.214 228.307 205.029 228.752 204.701 229.08C204.372 229.409 203.926 229.593 203.461 229.594V229.594Z" fill="#1C75BC"/>
<path d="M224.752 218.747H175.529C174.627 218.747 173.896 219.476 173.896 220.376V220.62C173.896 221.52 174.627 222.25 175.529 222.25H224.752C225.654 222.25 226.385 221.52 226.385 220.62V220.376C226.385 219.476 225.654 218.747 224.752 218.747Z" fill="#1C75BC"/>
<path d="M278.605 218.747H232.748C231.876 218.747 231.17 219.452 231.17 220.322V220.674C231.17 221.544 231.876 222.25 232.748 222.25H278.605C279.476 222.25 280.183 221.544 280.183 220.674V220.322C280.183 219.452 279.476 218.747 278.605 218.747Z" fill="#1C75BC"/>
<path d="M238.145 229.594H210.338C209.872 229.594 209.426 229.41 209.097 229.081C208.767 228.753 208.583 228.307 208.583 227.842V227.842C208.583 227.378 208.768 226.933 209.097 226.605C209.426 226.277 209.872 226.093 210.338 226.093H238.145C238.61 226.093 239.056 226.277 239.385 226.605C239.714 226.933 239.899 227.378 239.9 227.842C239.9 228.307 239.715 228.753 239.386 229.081C239.057 229.41 238.61 229.594 238.145 229.594V229.594Z" fill="#1C75BC"/>
<path d="M301.008 206.816H244.65C243.477 206.816 242.526 207.766 242.526 208.937V209.829C242.526 211 243.477 211.949 244.65 211.949H301.008C302.182 211.949 303.133 211 303.133 209.829V208.937C303.133 207.766 302.182 206.816 301.008 206.816Z" fill="#F99746"/>
<path d="M142.725 187.237C142.725 187.237 143.36 185.809 143.771 185.124C144.183 184.438 145.943 182.47 146.242 182.919C146.54 183.367 147.738 186.382 147.103 187.227C146.468 188.073 147.143 189.54 143.981 190.43L142.725 187.237Z" fill="#FFB27D"/>
<path d="M107.57 178.228C107.57 178.228 123.765 191.719 130.08 190.47C135.02 189.493 142.593 186.901 142.593 186.901L144.11 190.768C144.11 190.768 137.314 199.97 130.23 200.028C119.157 200.125 110.974 195.243 110.974 195.243L107.57 178.228Z" fill="#95B3EF"/>
<path d="M79.1699 320.528C79.1699 320.528 79.6404 328.098 81.1084 328.206C81.3037 328.22 88.5496 328.22 88.5496 328.22L97.7976 328.166C97.7976 328.166 97.7388 325.943 95.0333 325.473C92.3278 325.003 87.8039 323.106 86.1665 319.54C84.4444 315.788 79.1699 320.528 79.1699 320.528Z" fill="#1C4B8E"/>
<path d="M78.6385 321.054C78.6385 321.054 81.4616 321.993 83.6448 321.993C85.2253 321.973 86.7965 321.749 88.3194 321.326C88.3194 321.326 88.8487 316.217 91.7612 304.959C93.2904 299.058 95.4712 291.472 98.5837 282.045C107.163 255.982 109.772 240.744 110.01 239.312C110.01 239.234 110.029 239.197 110.029 239.197L110.001 239.185L83.6213 227.626C83.6213 227.626 86.882 263.536 82.7226 277.321C82.0903 279.49 81.586 281.695 81.2123 283.923C78.5774 298.887 78.6385 321.054 78.6385 321.054Z" fill="#FFA561"/>
<path d="M91.7611 304.959C93.2903 299.058 95.4711 291.472 98.5836 282.045C107.163 255.982 109.772 240.744 110.01 239.312C110.01 239.267 110.01 239.227 110.01 239.185L83.6306 227.626C83.6306 227.626 86.8913 263.536 82.7319 277.321C82.1297 279.237 91.7611 304.959 91.7611 304.959Z" fill="#F4904D"/>
<path d="M99.7742 320.528C99.7742 320.528 100.245 328.098 101.71 328.206C101.906 328.22 109.152 328.22 109.152 328.22L118.402 328.166C118.402 328.166 118.341 325.943 115.638 325.473C112.934 325.003 108.408 323.106 106.771 319.54C105.046 315.788 99.7742 320.528 99.7742 320.528Z" fill="#1C4B8E"/>
<path d="M114.729 228.462C114.729 228.462 115.07 251.733 111.038 280.305C107.006 308.877 108.37 321.005 108.37 321.005C108.37 321.005 105.599 321.902 104.479 321.993C101.63 322.228 98.708 321.326 98.708 321.326C98.708 321.326 92.9348 292.744 94.5886 278.443C96.2425 264.142 86.6816 229.371 86.6816 229.371L114.729 228.462Z" fill="#FFA561"/>
<path d="M96.0242 174.006L101.174 177.375L105.863 176.053C106.721 174.832 106.947 172.477 106.961 170.439C106.966 169.192 106.904 167.945 106.775 166.704L99.8306 163.651L97.2428 162.513C97.2428 162.553 97.4451 164.626 97.4781 164.941C97.9509 170.334 96.0242 174.006 96.0242 174.006Z" fill="#FFB27D"/>
<path d="M114.847 234.928C108.438 241.106 84.1833 240.066 82.6871 233.261C81.1909 226.457 84.3174 175.339 95.2663 172.127C97.5365 171.46 109.683 175.379 109.683 175.379C111.022 179.063 112.077 182.844 112.838 186.689C113.073 187.922 113.779 200.986 114.32 213.207C114.555 218.922 114.776 224.456 114.882 228.507C114.981 232.303 114.986 234.797 114.847 234.928Z" fill="#AFCDFB"/>
<path d="M97.9861 165.027C99.3977 167.405 104.338 169.488 106.961 170.427C106.966 169.18 106.904 167.933 106.775 166.692L99.8305 163.639C98.2943 163.623 97.358 163.963 97.9861 165.027Z" fill="#FCA56B"/>
<path d="M109.396 166.281C109.396 166.281 98.2025 169.766 96.137 162.776C94.0714 155.786 91.2319 151.527 98.2919 149.007C105.352 146.488 107.535 148.742 108.794 150.909C110.052 153.076 112.254 165.194 109.396 166.281Z" fill="#FFB27D"/>
<path d="M108.356 150.235C108.356 150.235 107.65 158.369 105.956 158.016C104.263 157.664 102.428 156.908 102.663 159.359C102.898 161.811 101.016 166.016 98.5929 166.004C93.3796 165.983 87.7169 152.635 89.1426 150.101C93.2572 142.799 114.303 141.325 108.356 150.235Z" fill="#163560"/>
<path d="M106.709 172.306C106.566 172.245 98.3766 168.58 97.4191 168.894C96.4616 169.209 95.2688 172.13 95.2688 172.13L109.685 175.384C109.685 175.384 108.549 173.081 106.709 172.306Z" fill="#95B3EF"/>
<path d="M157.682 211.894L111.784 255.026C110.885 255.872 109.749 256.139 109.262 255.625L107.714 253.982C107.227 253.465 107.563 252.352 108.464 251.507L154.363 208.375C155.264 207.53 156.398 207.262 156.885 207.776L158.433 209.42C158.92 209.936 158.583 211.049 157.682 211.894Z" fill="#1F4D84"/>
<path d="M131.926 236.103L111.784 255.03C110.885 255.875 109.749 256.143 109.262 255.629L107.714 253.985C107.227 253.469 107.563 252.356 108.464 251.51L128.605 232.581L131.926 236.103Z" fill="#739AF0"/>
<path d="M147.134 195.612C148.732 200.843 151.506 205.641 155.245 209.64C158.984 213.638 163.589 216.731 168.708 218.683C173.828 220.635 179.326 221.393 184.784 220.902C190.241 220.41 195.514 218.68 200.2 215.844C204.886 213.009 208.861 209.142 211.822 204.54C214.783 199.938 216.651 194.721 217.284 189.289C217.918 183.856 217.299 178.351 215.476 173.193C213.653 168.035 210.673 163.362 206.764 159.528C206.578 159.345 206.39 159.162 206.2 158.983C200.423 153.559 193.012 150.192 185.12 149.406C177.227 148.619 169.296 150.458 162.558 154.636C155.821 158.814 150.656 165.097 147.867 172.507C145.077 179.917 144.82 188.04 147.134 195.612V195.612ZM157.417 162.473C161.908 157.708 167.713 154.379 174.1 152.908C180.486 151.437 187.166 151.888 193.295 154.206C199.425 156.524 204.727 160.604 208.533 165.929C212.339 171.255 214.477 177.588 214.677 184.126C214.876 190.664 213.129 197.115 209.655 202.662C206.182 208.21 201.138 212.604 195.161 215.29C189.185 217.976 182.545 218.834 176.081 217.753C169.616 216.673 163.618 213.703 158.845 209.221C155.67 206.248 153.115 202.679 151.324 198.719C149.534 194.759 148.544 190.485 148.411 186.142C148.279 181.8 149.006 177.474 150.551 173.412C152.096 169.35 154.43 165.633 157.417 162.473V162.473Z" fill="#1F4D84"/>
<g opacity="0.5">
<path opacity="0.5" d="M205.682 207.793C201.191 212.558 195.386 215.887 188.999 217.359C182.613 218.83 175.932 218.379 169.803 216.061C163.674 213.743 158.371 209.664 154.565 204.338C150.759 199.012 148.621 192.68 148.421 186.141C148.221 179.602 149.969 173.151 153.443 167.604C156.916 162.057 161.961 157.662 167.937 154.976C173.914 152.29 180.554 151.433 187.018 152.514C193.483 153.595 199.481 156.564 204.254 161.047C207.438 164.014 210.002 167.581 211.798 171.541C213.595 175.502 214.588 179.778 214.721 184.123C214.853 188.469 214.123 192.798 212.572 196.86C211.021 200.922 208.679 204.638 205.682 207.793V207.793Z" fill="#B3CFF9"/>
</g>
<path d="M114.882 228.509C89.5919 210.524 91.6951 186.521 91.6951 186.521C100.938 191.726 110.111 203.231 114.32 213.21C114.567 218.925 114.776 224.459 114.882 228.509Z" fill="#95B3EF"/>
<path d="M139.843 220.32C141.629 219.909 142.826 218.561 143.075 218.326C143.075 218.326 143.835 218.378 142.948 219.998C142.875 220.134 142.713 220.482 142.586 220.728C142.573 220.752 142.566 220.779 142.566 220.806C142.566 220.833 142.573 220.86 142.586 220.884C142.6 220.907 142.619 220.927 142.643 220.941C142.666 220.955 142.693 220.962 142.72 220.963C143.748 221.04 144.783 220.634 146.767 221.047C147.039 221.104 147.119 221.752 147.108 222.036C147.091 222.506 147.124 223.039 146.576 223.762C146.256 224.182 145.364 224.635 143.379 225.431C142.624 225.734 140.462 225.506 138.438 224.811L136.82 224.062L137.323 221.059L137.73 221.144C138.37 221.271 139.175 220.484 139.843 220.32Z" fill="#FFB27D"/>
<path d="M99.5433 175.384C99.5433 175.384 76.8175 179.702 106.229 212.546C110.934 217.798 136.342 224.638 136.342 224.638C136.342 224.638 138.93 222.449 137.622 220.677C137.622 220.677 120.124 207.998 116.275 205.981C114.541 205.072 109.551 185.739 106.728 181.092C103.905 176.446 99.5433 175.384 99.5433 175.384Z" fill="#AFCDFB"/>
<path d="M143.341 187.633C143.341 187.633 144.084 186.224 144.23 185.468C144.376 184.712 145.31 182.54 145.696 182.155C145.851 182 146.359 182.2 146.421 182.86C146.446 183.146 146.305 183.67 146.056 184.294C145.649 185.309 145.715 186.684 145.585 187.145C145.221 188.288 143.341 187.633 143.341 187.633Z" fill="#FFB27D"/>
<path d="M447.185 144.343L434.319 147.33L427.958 158.884L423.1 132.554L447.185 144.343Z" fill="#233862"/>
<path d="M433.619 144.802L431.744 146.22L439.961 157.044L441.836 155.626L433.619 144.802Z" fill="#233862"/>
<path d="M404.764 266.037C404.764 266.037 410.083 259.803 405.06 255.873C405.06 255.873 401.395 253.673 398.412 253.861C398.412 253.861 402.66 260.923 401.296 261.632C399.931 262.341 397.127 253.414 397.127 253.414C397.127 253.414 388.799 252.635 386.124 253.929C386.124 253.929 393.262 259.721 391.77 260.071C390.279 260.421 382.565 254.739 382.565 254.739C382.565 254.739 374.818 256.079 375.246 260.799C375.674 265.518 378.349 266.965 379.523 266.835C380.697 266.706 387.555 264.067 387.707 265.027C387.86 265.988 383.736 269.136 380.843 269.291C380.843 269.291 386.326 275.288 389.952 273.541C393.577 271.794 393.878 269.043 396.139 268.002C398.4 266.962 400.331 266.96 399.4 268.016C398.468 269.073 394.377 270.106 393.088 272.398C391.799 274.689 390.646 276.232 394.4 275.654C398.155 275.077 404.253 272.316 404.517 269.174L404.764 266.037Z" fill="#82B378"/>
<path d="M379.048 260.92C379.048 260.92 400.096 260.042 404.764 266.036C404.764 266.036 405.801 269.107 408.972 271.906L409.471 273.247C409.471 273.247 405.81 269.42 404.505 269.192C404.505 269.18 406.523 261.73 379.048 260.92Z" fill="#82B378"/>
<path d="M408.973 271.895C408.973 271.895 413.504 275.215 413.835 281.174L413.014 281.249C413.014 281.249 411.553 275.093 408.937 272.691C406.321 270.289 408.973 271.895 408.973 271.895Z" fill="#82B378"/>
<path d="M432.988 249.597C432.988 249.597 424.478 244.877 428.421 238.423C428.421 238.423 431.581 234.457 434.973 233.429C434.973 233.429 433.192 243.041 435.006 243.262C436.82 243.483 436.215 232.407 436.215 232.407C436.215 232.407 445.155 228.085 448.66 228.416C448.66 228.416 443.141 237.808 444.953 237.573C446.764 237.338 452.951 227.826 452.951 227.826C452.951 227.826 462.126 226.103 463.606 231.522C465.086 236.941 462.726 239.663 461.369 240.005C460.011 240.348 451.293 240.264 451.523 241.393C451.754 242.522 457.64 244.311 460.934 243.285C460.934 243.285 457.339 252.224 452.582 251.787C447.825 251.351 446.343 248.416 443.407 248.2C440.471 247.984 438.314 248.782 439.789 249.569C441.264 250.355 446.244 249.803 448.627 251.816C451.011 253.828 452.942 255.063 448.529 255.981C444.115 256.899 436.187 256.359 434.59 252.976L432.988 249.597Z" fill="#A8D29F"/>
<path d="M459.433 233.238C459.433 233.238 435.672 240.987 432.987 249.597C432.987 249.597 433.112 253.438 430.748 257.852V259.547C430.748 259.547 433.22 253.776 434.575 252.973C434.583 252.982 429.247 245.539 459.433 233.238Z" fill="#82B378"/>
<path d="M430.748 257.852C430.748 257.852 427.099 263.421 429.212 270.181L430.153 269.925C430.153 269.925 429.212 262.477 431.122 258.723C433.032 254.968 430.748 257.852 430.748 257.852Z" fill="#82B378"/>
<path d="M419.456 243.092C419.456 243.092 430.63 236.8 425.379 228.326C425.379 228.326 421.182 223.123 416.701 221.799C416.701 221.799 419.129 234.452 416.743 234.757C414.358 235.062 415.054 220.463 415.054 220.463C415.054 220.463 403.244 214.828 398.619 215.297C398.619 215.297 405.973 227.638 403.583 227.349C401.193 227.06 392.944 214.572 392.944 214.572C392.944 214.572 380.848 212.374 378.93 219.53C377.013 226.687 380.158 230.254 381.951 230.695C383.744 231.136 395.236 230.951 394.942 232.442C394.648 233.933 386.894 236.34 382.56 235.013C382.56 235.013 387.374 246.767 393.641 246.152C399.908 245.537 401.837 241.655 405.717 241.345C409.596 241.035 412.436 242.069 410.499 243.118C408.563 244.168 401.992 243.487 398.866 246.156C395.739 248.826 393.22 250.472 399.033 251.646C404.846 252.82 415.303 252.04 417.383 247.565L419.456 243.092Z" fill="#A8D29F"/>
<path d="M384.459 221.752C384.459 221.752 415.837 231.782 419.456 243.093C419.456 243.093 419.321 248.157 422.474 253.959V256.192C422.474 256.192 419.166 248.606 417.374 247.568C417.381 247.568 424.363 237.713 384.459 221.752Z" fill="#82B378"/>
<path d="M422.474 253.959C422.474 253.959 427.332 261.268 424.605 270.195L423.361 269.867C423.361 269.867 424.537 260.04 421.992 255.107C419.446 250.174 422.474 253.959 422.474 253.959Z" fill="#82B378"/>
<path d="M509.084 328.786H394.351C378.354 310.524 382.588 285.854 403.811 265.046C406.481 262.43 411.603 260.585 417.124 259.265C427.304 256.854 438.845 256.297 438.935 256.25C438.968 256.236 445.035 251.32 448.684 246.917C460.023 233.217 469.669 234.393 469.669 234.393C481.227 232.148 491.077 231.491 498.396 235.551C505.167 239.307 509.752 247.138 511.467 261.512C511.792 264.228 512.013 267.186 512.13 270.385C512.549 282.05 514.852 292.428 516.221 301.214C518.205 313.947 519.607 323.625 509.084 328.786Z" fill="#FFA561"/>
<path d="M492.667 250.204C485.654 254.017 484.878 266.577 473.903 269.822C462.929 273.066 444.303 272.771 433.717 284.212C423.521 295.248 412.275 267.166 417.117 259.265C427.297 256.854 438.838 256.297 438.928 256.25C438.961 256.236 445.028 251.32 448.677 246.917C460.016 233.217 469.662 234.393 469.662 234.393C481.22 232.148 491.07 231.491 498.389 235.551C506.449 243.851 499.681 246.391 492.667 250.204Z" fill="#F4904D"/>
<path d="M416.759 304.508C416.759 304.508 418.778 309.854 418.359 311.843C417.94 313.832 418.639 317.676 417.83 319.401C417.02 321.127 415.576 323.628 416.973 324.259C417.503 324.494 423.65 319.709 424.001 318.3C424.351 316.891 424.61 312.735 425.781 310.479C426.953 308.223 425.96 306.405 424.252 305.581C422.544 304.757 420.154 300.223 420.154 300.223L416.759 304.508Z" fill="#F9DDBF"/>
<path d="M449.618 253.818C449.618 253.818 416.049 251.75 411.723 256.192C407.166 260.874 414.59 306.927 414.59 306.927C414.59 306.927 423.695 307.188 424.41 304.781C424.41 304.781 422.702 282.475 424.123 278.627C425.544 274.779 424.643 269.435 424.643 269.435C424.643 269.435 442.454 272.088 448.103 270.735C453.751 269.383 449.618 253.818 449.618 253.818Z" fill="#233862"/>
<path d="M457.751 229.225C457.751 229.253 452.81 240.749 450.389 241.975C447.969 243.2 439.241 253.226 437.366 253.052C435.491 252.878 439.302 255.1 439.302 255.1C439.302 255.1 454.829 247.539 455.72 247.098C456.612 246.656 461.284 238.976 461.924 235.076C462.564 231.176 457.751 229.225 457.751 229.225Z" fill="#FFB27D"/>
<path d="M410.56 313.334C410.56 313.334 408.648 318.718 407.032 319.967C405.415 321.216 403.475 324.604 401.741 325.4C400.007 326.196 397.271 327.18 397.944 328.561C398.195 329.084 405.989 329.385 407.166 328.532C408.342 327.68 411.229 324.675 413.586 323.705C415.943 322.735 416.355 320.707 415.581 318.979C414.807 317.251 415.915 312.247 415.915 312.247L410.56 313.334Z" fill="#F9DDBF"/>
<path d="M467.862 224.128C467.156 223.302 485.323 225.337 487.741 234.607C487.741 234.607 501.704 223.623 488.897 214.368C484.462 211.163 484.015 207.742 483.373 204.612C482.73 201.482 478.303 192.485 470.629 196.953C470.629 196.953 467.121 196.969 464.903 198.89C459.856 203.248 454.351 230.991 467.862 224.128Z" fill="#163560"/>
<path d="M464.324 255.443C464.324 255.443 427.835 259.16 424.622 262.869C421.408 266.579 408.824 314.94 408.824 314.94C408.824 314.94 412.551 317.011 415.936 315.072C415.936 315.072 425.582 298.669 429.856 293.517C434.131 288.366 435.719 272.47 436.425 272.306C437.13 272.142 460.002 275.485 467.876 269.448C475.75 263.412 464.324 255.443 464.324 255.443Z" fill="#2A4E96"/>
<path d="M484.638 222.381C484.638 222.381 475.934 218.502 464.891 220.282C462.637 220.646 460.605 221.386 458.993 224.039C456.713 227.796 455.648 229.798 455.648 229.798C455.648 229.798 455.869 231.534 458.981 232.917C458.134 236.023 459.76 241.447 458.276 243.553C456.791 245.659 447.505 250.881 447.047 253.783C446.207 259.118 462.903 268.782 467.881 267.749C482.194 264.774 491.91 226.476 484.638 222.381Z" fill="#F9DDBF"/>
<path d="M479.707 211.392C479.707 211.392 481.422 208.023 481.65 205.257C481.81 203.283 480.138 196.18 472.99 197.899C471.55 198.239 470.204 198.898 469.052 199.826C467.58 201.036 465.523 203.538 468.662 209.58L469.52 211.639L479.707 211.392Z" fill="#163560"/>
<path d="M469.911 222.764C469.189 223.525 469.474 226.051 472.856 225.866C475.077 225.739 479.836 222.999 479.389 221.104C479.178 220.205 477.47 217.883 477.068 212.541L476.663 212.654L469.885 214.558C469.885 214.558 470.212 216.709 470.377 218.747C470.518 220.456 470.21 222.449 469.911 222.764Z" fill="#FFB27D"/>
<path d="M469.885 214.558C469.885 214.558 470.212 216.708 470.377 218.746C474.223 218.333 475.983 214.666 476.663 212.653L469.885 214.558Z" fill="#F4A269"/>
<path d="M469.739 217.686C469.739 217.686 478.611 215.457 477.133 209.965C475.656 204.474 475.809 200.487 470.076 201.677C464.342 202.867 463.815 205.258 463.862 207.211C463.91 209.165 467.396 218.125 469.739 217.686Z" fill="#FFB27D"/>
<path d="M466.025 202.625C466.025 202.625 469.003 208.288 474.623 208.896C477.917 209.253 478.813 211.413 478.813 211.413C478.813 211.413 477.825 205.233 476.172 201.451C476.172 201.451 467.02 199.068 466.025 202.625Z" fill="#163560"/>
<path d="M467.041 203.375C467.041 203.375 465.098 205.354 464.5 206.749C463.613 208.815 465.345 213.166 466.06 214.105C466.06 214.105 461.929 207.115 463.307 204.088C464.771 200.884 467.041 203.375 467.041 203.375Z" fill="#163560"/>
<path d="M440.003 254.368C440.003 254.368 438.236 256.246 438.022 256.338C436.846 256.882 435.378 256.572 434.665 256.744C433.952 256.915 434.075 256.481 434.602 256.122C435.128 255.762 436.42 255.901 435.893 255.769C435.366 255.638 432.508 255.11 431.423 255.396C429.72 255.852 428.365 255.319 428.271 255.145C428.177 254.971 432.157 253.032 433.298 253.088C434.439 253.144 437.719 252.994 437.719 252.994L440.003 254.368Z" fill="#FFB27D"/>
<path d="M487.64 225.823C487.64 225.823 498.648 250.622 495.59 254.264C492.531 257.906 471.372 253.489 471.372 253.489L472.026 251.186C472.026 251.186 487.603 250.247 488.713 249.92C490.308 249.47 480.82 232.076 480.82 232.076L487.64 225.823Z" fill="#FFB27D"/>
<path d="M483.535 221.975C483.798 221.975 487.087 223.057 489.452 227.722C491.774 232.306 492.618 234.532 492.618 234.532C492.618 234.532 482.328 242.494 478.235 239.566C474.141 236.638 479.759 221.876 483.535 221.975Z" fill="#F9DDBF"/>
<path d="M473.845 251.073C473.845 251.073 472.075 249.927 471.36 249.3C470.645 248.673 466.5 248.166 466.502 248.596C466.505 249.025 468.916 249.582 469.179 250.004C469.443 250.427 470.918 252.143 472.174 252.141C472.527 252.146 472.873 252.048 473.17 251.858C473.467 251.668 473.702 251.395 473.845 251.073V251.073Z" fill="#FFB27D"/>
<path d="M469.006 254.8L464.258 254.126C463.897 254.067 463.558 253.914 463.276 253.683C462.994 253.451 462.778 253.148 462.651 252.806L460.03 243.555C459.852 242.926 460.282 242.499 460.99 242.6L465.738 243.271C466.444 243.372 467.168 243.976 467.345 244.593L469.968 253.844C470.151 254.473 469.711 254.901 469.006 254.8Z" fill="#1F4A91"/>
<path d="M468.024 254.652L463.277 253.978C462.916 253.918 462.577 253.765 462.295 253.533C462.013 253.3 461.797 252.998 461.67 252.656L459.049 243.405C458.87 242.776 459.301 242.348 460.009 242.449L464.757 243.123C465.462 243.224 466.187 243.814 466.363 244.443L468.986 253.694C469.163 254.332 468.732 254.76 468.024 254.652Z" fill="#233862"/>
<path d="M459.859 243.64C459.786 243.377 459.965 243.201 460.259 243.241C460.409 243.266 460.549 243.33 460.667 243.427C460.784 243.523 460.874 243.649 460.927 243.791C461 244.052 460.822 244.23 460.527 244.188C460.377 244.163 460.237 244.099 460.12 244.003C460.002 243.907 459.912 243.782 459.859 243.64V243.64Z" fill="#1F4A91"/>
<path d="M471.372 253.489C471.372 253.489 468.161 253.534 467.356 253.343C466.552 253.153 464.493 250.603 465.042 249.967C465.387 249.563 467.307 250.284 468.22 250.282C469.133 250.279 471.513 248.96 473.134 251.66C473.318 251.965 471.372 253.489 471.372 253.489Z" fill="#FFB27D"/>
<path d="M485.156 259.583C485.156 259.583 481.7 262.816 467.232 263.281C452.763 263.745 433.9 279.702 433.724 284.208C433.547 288.714 462.858 295.558 463.31 294.912C463.762 294.267 481.895 278.711 481.895 278.711L485.156 259.583Z" fill="#FFA561"/>
<path d="M516.221 301.218C500.125 281.164 467.053 308.497 458.504 307.729C450.637 307.025 473.845 279.612 502.624 275.534C514.259 273.89 511.472 261.888 511.467 261.517C511.792 264.232 512.013 267.19 512.13 270.39C512.549 282.054 514.852 292.432 516.221 301.218Z" fill="#F4904D"/>
<path d="M558.276 330L9.49394 329.812C9.406 329.812 9.31893 329.795 9.23771 329.761C9.1565 329.728 9.08274 329.678 9.02067 329.616C8.9586 329.554 8.90943 329.48 8.87599 329.399C8.84256 329.318 8.8255 329.231 8.82581 329.143V328.803C8.82581 328.715 8.84309 328.628 8.87667 328.547C8.91025 328.466 8.95946 328.393 9.0215 328.331C9.08354 328.269 9.1572 328.22 9.23826 328.187C9.31932 328.153 9.4062 328.136 9.49394 328.136L558.276 328.324C558.453 328.324 558.623 328.395 558.748 328.52C558.873 328.645 558.944 328.814 558.944 328.99V329.333C558.944 329.51 558.873 329.679 558.748 329.804C558.623 329.929 558.453 329.999 558.276 330V330Z" fill="#2E3552"/>
<path d="M331.582 25.1193L362.928 31.5903L342.832 16.0068L341.48 20.5173L333.702 21.4283L331.582 25.1193Z" fill="#95B3EF"/>
<path d="M362.928 31.5899L337.457 16.408L311.741 13.5083L362.928 31.5899Z" fill="#F9DDBF"/>
<path d="M342.832 16.0064L362.928 31.5898L348.076 8.26514L342.832 16.0064Z" fill="#F9DDBF"/>
<path d="M134.613 113.161L103.268 119.634L123.363 104.048L124.716 108.559L132.494 109.47L134.613 113.161Z" fill="#95B3EF"/>
<path d="M103.268 119.634L128.739 104.452L154.452 101.55L103.268 119.634Z" fill="#F9DDBF"/>
<path d="M123.363 104.048L103.268 119.634L118.119 96.3071L123.363 104.048Z" fill="#F9DDBF"/>
<path d="M185.97 122.2L186.887 121.113C187.718 121.817 188.548 122.237 189.626 122.237C190.567 122.237 191.162 121.805 191.162 121.125C191.162 120.507 190.814 120.171 189.205 119.789C187.358 119.356 186.318 118.812 186.318 117.192C186.318 115.708 187.555 114.682 189.277 114.682C190.423 114.658 191.54 115.044 192.425 115.771L191.606 116.919C190.828 116.339 190.047 116.029 189.254 116.029C188.362 116.029 187.842 116.487 187.842 117.081C187.842 117.748 188.24 118.046 189.901 118.441C191.734 118.887 192.689 119.542 192.689 121C192.689 122.62 191.411 123.583 189.59 123.583C188.253 123.59 186.961 123.097 185.97 122.2V122.2Z" fill="#739AF0"/>
<path d="M193.95 120.198C193.95 118.319 195.274 116.798 197.144 116.798C199.226 116.798 200.28 118.441 200.28 120.32C200.28 120.46 200.271 120.601 200.255 120.74H195.448C195.49 121.204 195.709 121.635 196.059 121.943C196.409 122.251 196.864 122.414 197.33 122.398C197.664 122.399 197.995 122.331 198.3 122.196C198.606 122.062 198.88 121.865 199.104 121.618L199.982 122.398C199.661 122.795 199.253 123.112 198.789 123.324C198.325 123.536 197.817 123.638 197.307 123.621C195.401 123.609 193.95 122.238 193.95 120.198ZM198.794 119.728C198.695 118.763 198.123 118.009 197.133 118.009C196.215 118.009 195.573 118.714 195.437 119.728H198.794Z" fill="#739AF0"/>
<path d="M205.793 123.461V122.658C205.534 122.965 205.209 123.209 204.843 123.372C204.476 123.535 204.076 123.612 203.675 123.598C202.435 123.598 201.346 122.893 201.346 121.557C201.346 120.111 202.473 119.418 203.998 119.418C204.611 119.408 205.221 119.5 205.804 119.691V119.566C205.804 118.664 205.235 118.169 204.195 118.169C203.546 118.17 202.904 118.309 202.313 118.578L201.904 117.378C202.681 117.008 203.532 116.821 204.393 116.833C206.327 116.833 207.268 117.847 207.268 119.592V123.461H205.793ZM205.83 120.728C205.35 120.554 204.843 120.466 204.332 120.47C203.391 120.47 202.833 120.853 202.833 121.508C202.833 122.125 203.391 122.473 204.096 122.473C205.087 122.473 205.83 121.916 205.83 121.099V120.728Z" fill="#739AF0"/>
<path d="M209.063 116.934H210.564V118.403C210.973 117.427 211.74 116.76 212.879 116.809V118.392H212.794C211.479 118.392 210.564 119.244 210.564 120.974V123.459H209.063V116.934Z" fill="#739AF0"/>
<path d="M213.599 120.209C213.593 119.761 213.676 119.317 213.844 118.902C214.013 118.487 214.262 118.11 214.578 117.792C214.894 117.474 215.271 117.223 215.685 117.052C216.1 116.881 216.545 116.795 216.993 116.798C217.486 116.776 217.977 116.866 218.429 117.061C218.882 117.256 219.285 117.55 219.607 117.922L218.666 118.922C218.195 118.453 217.725 118.108 216.97 118.108C215.878 118.108 215.088 119.047 215.088 120.209C215.088 121.371 215.895 122.322 217.045 122.322C217.751 122.322 218.273 121.989 218.744 121.508L219.647 122.397C219.196 122.934 218.591 123.32 217.913 123.502C217.235 123.685 216.518 123.656 215.857 123.418C215.197 123.181 214.625 122.747 214.22 122.175C213.814 121.604 213.594 120.921 213.589 120.221L213.599 120.209Z" fill="#739AF0"/>
<path d="M221.044 114.436H222.543V117.946C222.964 117.328 223.571 116.798 224.587 116.798C226.062 116.798 226.916 117.786 226.916 119.308V123.461H225.418V119.751C225.418 118.739 224.91 118.157 224.006 118.157C223.103 118.157 222.531 118.763 222.531 119.777V123.461H221.044V114.436Z" fill="#739AF0"/>
<path d="M228.615 121.769H230.262V123.461H228.615V121.769Z" fill="#739AF0"/>
<path d="M231.946 121.769H233.593V123.461H231.946V121.769Z" fill="#739AF0"/>
<path d="M235.28 121.769H236.927V123.461H235.28V121.769Z" fill="#739AF0"/>
<path d="M238.614 121.769H240.26V123.461H238.614V121.769Z" fill="#739AF0"/>
<path d="M325.277 203.097C325.277 202.779 325.371 202.469 325.547 202.205C325.724 201.941 325.974 201.735 326.268 201.613C326.562 201.492 326.885 201.46 327.197 201.521C327.509 201.583 327.795 201.736 328.02 201.96C328.245 202.185 328.398 202.471 328.46 202.782C328.522 203.093 328.49 203.416 328.368 203.709C328.246 204.002 328.04 204.253 327.775 204.429C327.511 204.605 327.2 204.699 326.882 204.698C326.456 204.698 326.048 204.529 325.747 204.229C325.446 203.929 325.277 203.521 325.277 203.097Z" fill="#D7E5FF"/>
<path d="M399.894 203.527H327.315C327.2 203.527 327.091 203.482 327.009 203.401C326.928 203.321 326.882 203.211 326.882 203.097V203.097C326.882 202.982 326.927 202.873 327.009 202.792C327.09 202.711 327.2 202.665 327.315 202.665H399.894C399.951 202.665 400.007 202.676 400.059 202.698C400.112 202.72 400.159 202.752 400.199 202.792C400.239 202.832 400.271 202.879 400.292 202.932C400.314 202.984 400.325 203.04 400.324 203.097V203.097C400.324 203.211 400.279 203.32 400.198 203.401C400.118 203.481 400.008 203.527 399.894 203.527V203.527Z" fill="#D7E5FF"/>
</svg>
